# xmcd
#
# Track frame offsets:
#	150
#	13458
#	25484
#	36770
#	49113
#	61978
#	74114
#	88547
#	100626
#	114117
#	124899
#	138057
#	150941
#	162898
#	176474
#	188108
#	202656
#	212728
#	226507
#	237897
#	247401
#	258653
#	273286
#	285476
#	297590
#	310300
#	322071
#	335555
#
# Disc length: 4659 seconds
#
# Revision: 2
# Processed by: cddbd v1.5.2PL0 Copyright (c) Steve Scherf et al.
# Submitted via: EasyCDDAExtractor 10.0.6.1
#
DISCID=9512311c
DTITLE=Various Artist - I'm A Bad, Bad Girl - Disc 3
DYEAR=2004
DGENRE=Jump Blues
TTITLE0=Little Esther - I'm A Bad, Bad Girl
TTITLE1=Helen Humes - I Ain't In The Mood
TTITLE2=Baby Davis - Happy Home Blues
TTITLE3=Etta Jones - You Ain't Nothin' Daddy
TTITLE4=Varetta Dillard - A Letter In Blues
TTITLE5=Julia Lee  - King Size Papa
TTITLE6=Sippie Wallace - Bedroom Blues
TTITLE7=Zilla Mays - Nightshift Blues
TTITLE8=Miss Rhapsody - He May Be Your Man
TTITLE9=Chubby Newsome - Where's The Money, Honey
TTITLE10=Fay Adams - Shake A Hand
TTITLE11=Lillie Mae and The House Rockers - Lovin' Man Blues
TTITLE12=Little Miss Sharecropper - Easy Baby
TTITLE13=Connie Allen - Hard Working Woman
TTITLE14=Iona Wade - Why Don't You Tell Me So
TTITLE15=Big Maybelle - Just Want Your Love
TTITLE16=Beverley Wright - Kissin' Boogie
TTITLE17=Blue Lu Barker - Don't You Feel My Leg
TTITLE18=Numa Lee Davis - Around The Clock (Pt.1)
TTITLE19=Vivian Verson - I Want To Know
TTITLE20=Camille Howard - Money Blues
TTITLE21=Eleanor Franklin - The Three Men In My Life (Pt.1)
TTITLE22=Paula Watson - Pretty Paap Blues
TTITLE23=Rosetta Howard - You Made Me Love You
TTITLE24=Gladys Hill - Please Don't Touch My Bowl
TTITLE25=Albinia Jones - Hey Little Boy
TTITLE26=Bettye Jean Washington - Bettye Jean's Blues
TTITLE27=Vivian Greene - Bowlegged Boogie
EXTD=
EXTT0=1951
EXTT1=1950
EXTT2=1949
EXTT3=1945
EXTT4=1952
EXTT5=1948
EXTT6=1945
EXTT7=1952
EXTT8=1945
EXTT9=1951
EXTT10=1953
EXTT11=1948
EXTT12=1949 [=LaVern Baker]
EXTT13=1952
EXTT14=1948
EXTT15=1952
EXTT16=1951
EXTT17=1948
EXTT18=1945
EXTT19=1952
EXTT20=1951
EXTT21=1953
EXTT22=1947
EXTT23=1948
EXTT24=1953
EXTT25=1948
EXTT26=1951
EXTT27=1948
PLAYORDER=
